HIERARCHY
ROOT Hips
{
	OFFSET 0.000000 0.000000 0.000000
	CHANNELS 6 Xposition Yposition Zposition Zrotation Yrotation Xrotation 
	JOINT LowerBack
	{
		OFFSET 0.000000 0.000000 0.000000
		CHANNELS 3 Zrotation Yrotation Xrotation
		JOINT Spine
		{
			OFFSET 0.028270 2.035590 -0.193380
			CHANNELS 3 Zrotation Yrotation Xrotation
			JOINT Spine1
			{
				OFFSET 0.056720 2.048850 -0.042750
				CHANNELS 3 Zrotation Yrotation Xrotation
				JOINT Neck
				{
					OFFSET 0.000000 0.000000 0.000000
					CHANNELS 3 Zrotation Yrotation Xrotation
					JOINT Neck1
					{
						OFFSET -0.054170 1.746240 0.172020
						CHANNELS 3 Zrotation Yrotation Xrotation
						JOINT Head
						{
							OFFSET 0.104070 1.761360 -0.123970
							CHANNELS 3 Zrotation Yrotation Xrotation
							End Site
							{
								OFFSET 0.000000 0.000000 0.000000
							}
						}
					}
				}
				JOINT LeftShoulder
				{
					OFFSET 0.000000 0.000000 0.000000
					CHANNELS 3 Zrotation Yrotation Xrotation
					JOINT LeftArm
					{
						OFFSET 3.362410 1.200890 -0.311210
						CHANNELS 3 Zrotation Yrotation Xrotation
						JOINT LeftForeArm
						{
							OFFSET 4.983000 -0.000000 -0.000000
							CHANNELS 3 Zrotation Yrotation Xrotation
							JOINT LeftHand
							{
								OFFSET 3.483560 -0.000000 -0.000000
								CHANNELS 3 Zrotation Yrotation Xrotation
								JOINT LeftFingerBase
								{
									OFFSET 0.000000 0.000000 0.000000
									CHANNELS 3 Zrotation Yrotation Xrotation
									JOINT LeftHandIndex1
									{
										OFFSET 0.715260 -0.000000 -0.000000
										CHANNELS 3 Zrotation Yrotation Xrotation
										End Site
										{
											OFFSET 0.000000 0.000000 0.000000
										}
									}
								}
								JOINT LThumb
								{
									OFFSET 0.000000 0.000000 0.000000
									CHANNELS 3 Zrotation Yrotation Xrotation
									End Site
									{
										OFFSET 0.000000 0.000000 0.000000
									}
								}
							}
						}
					}
				}
				JOINT RightShoulder
				{
					OFFSET 0.000000 0.000000 0.000000
					CHANNELS 3 Zrotation Yrotation Xrotation
					JOINT RightArm
					{
						OFFSET -3.136600 1.374050 -0.404650
						CHANNELS 3 Zrotation Yrotation Xrotation
						JOINT RightForeArm
						{
							OFFSET -5.241900 -0.000000 -0.000000
							CHANNELS 3 Zrotation Yrotation Xrotation
							JOINT RightHand
							{
								OFFSET -3.444170 -0.000000 -0.000000
								CHANNELS 3 Zrotation Yrotation Xrotation
								JOINT RightFingerBase
								{
									OFFSET 0.000000 0.000000 0.000000
									CHANNELS 3 Zrotation Yrotation Xrotation
									JOINT RightHandIndex1
									{
										OFFSET -0.622530 -0.000000 -0.000000
										CHANNELS 3 Zrotation Yrotation Xrotation
										End Site
										{
											OFFSET 0.000000 0.000000 0.000000
										}
									}
								}
								JOINT RThumb
								{
									OFFSET 0.000000 0.000000 0.000000
									CHANNELS 3 Zrotation Yrotation Xrotation
									End Site
									{
										OFFSET 0.000000 0.000000 0.000000
									}
								}
							}
						}
					}
				}
			}
		}
	}
}
}
MOTION
Frames: 10
Frame Time: 0.008333
3.122586 16.678998 0.903021 176.774665 -86.133104 -167.678777 -0.531291 -3.723412 -8.052612 -0.231949 -3.835527 -3.759026 -4.048767 -3.869601 2.414848 12.687346 -21.357865 -10.108913 -1.072743 -0.047229 -0.535469 0.000000 0.000000 0.000000 18.863584 10.343109 -1.408605 -32.498403 -11.597093 -17.061537 179.798702 -57.728281 -179.999831 -1.049820 -3.727049 0.046801 0.174935 0.740796 0.000000 0.000000 0.000000 0.000000 0.000000 0.000000 0.000000 4.288928 -17.695804 -1.711000 31.507440 19.638944 -10.118844 179.767881 55.146520 179.876087 -14.835299 6.004735 -0.895349 0.439410 -0.683823 -0.000000 0.000000 0.000000 0.000000 0.000000 0.000000 0.000000 
3.116932 16.652332 0.913784 123.657119 -89.864120 -114.300979 -0.644914 -4.287509 -8.233503 -0.211399 -4.379227 -3.770672 -4.082400 -4.406092 2.428932 12.867104 -21.435933 -10.154384 -1.079406 -0.046831 -0.548055 0.000000 0.000000 0.000000 19.068410 9.993784 -1.511566 -32.375268 -13.612424 -16.487693 179.764536 -57.974379 -179.996701 -1.350571 -3.680304 0.058538 0.190459 0.750593 0.000000 0.000000 0.000000 0.000000 0.000000 0.000000 0.000000 4.425186 -18.141212 -1.703750 31.802788 19.092152 -10.243066 179.712221 54.730630 179.877949 -14.676503 5.855615 -0.865429 0.439694 -0.679213 -0.000000 0.000000 0.000000 0.000000 0.000000 0.000000 0.000000 
3.106555 16.626101 0.937212 -10.717746 -89.052440 20.427909 -0.419910 -4.011854 -8.612885 -0.204127 -4.122469 -3.847426 -4.146914 -4.138426 2.466440 12.908880 -21.518540 -10.194848 -1.066326 -0.044108 -0.557205 0.000000 0.000000 0.000000 19.084808 10.108305 -1.618084 -32.268593 -15.621530 -15.894901 179.742361 -58.256652 -179.993801 -1.610311 -3.630181 0.068463 0.203308 0.761465 0.000000 0.000000 0.000000 0.000000 0.000000 0.000000 0.000000 4.330454 -18.243415 -1.659274 32.110179 18.834142 -10.310633 179.678259 54.474598 179.878814 -14.590708 5.763500 -0.848185 0.441544 -0.677819 -0.000000 0.000000 0.000000 0.000000 0.000000 0.000000 0.000000 
3.099725 16.603347 0.947774 -8.573248 -87.028541 18.536699 -0.377611 -3.991875 -8.859657 -0.220648 -4.107019 -3.885368 -4.239009 -4.112240 2.483077 13.042223 -21.666795 -10.227924 -1.052373 -0.041880 -0.567094 0.000000 0.000000 0.000000 19.199680 10.072685 -1.735306 -31.973813 -17.838444 -15.365540 179.694176 -58.679388 -179.991527 -1.811838 -3.579771 0.075804 0.215795 0.771617 0.000000 0.000000 0.000000 0.000000 0.000000 0.000000 0.000000 4.364746 -18.529229 -1.616520 32.551843 18.625942 -10.319317 179.642019 54.300111 179.878656 -14.594413 5.743083 -0.846030 0.444853 -0.679368 -0.000000 0.000000 0.000000 0.000000 0.000000 0.000000 0.000000 
3.092254 16.583660 0.957287 -7.549900 -84.876185 17.771170 -0.390249 -3.982212 -9.110909 -0.249041 -4.096794 -3.922117 -4.336542 -4.091247 2.500974 13.140756 -21.843405 -10.263930 -1.028085 -0.038634 -0.578327 0.000000 0.000000 0.000000 19.259558 10.076811 -1.854325 -31.561623 -20.249309 -14.875353 179.629816 -59.224571 -179.989999 -1.939968 -3.536025 0.080465 0.226507 0.782896 0.000000 0.000000 0.000000 0.000000 0.000000 0.000000 0.000000 4.351238 -18.860665 -1.582535 33.084127 18.499915 -10.303715 179.622188 54.268283 179.877415 -14.701656 5.797545 -0.860073 0.448972 -0.683281 -0.000000 0.000000 0.000000 0.000000 0.000000 0.000000 0.000000 
3.084241 16.567853 0.965089 -6.876272 -82.640066 17.350515 -0.450694 -3.969739 -9.355206 -0.290551 -4.079706 -3.957613 -4.443715 -4.063352 2.512869 13.203876 -22.024531 -10.298167 -0.996411 -0.034723 -0.589630 0.000000 0.000000 0.000000 19.274191 10.109814 -1.974096 -31.032527 -22.817192 -14.433142 179.548398 -59.882599 -179.989351 -1.991172 -3.508288 0.082444 0.235478 0.795354 0.000000 0.000000 0.000000 0.000000 0.000000 0.000000 0.000000 4.293867 -19.196591 -1.551870 33.696806 18.398327 -10.305526 179.621030 54.376386 179.875146 -14.908384 5.914059 -0.888713 0.453469 -0.688867 -0.000000 0.000000 0.000000 0.000000 0.000000 0.000000 0.000000 
3.075276 16.556694 0.971250 -6.397162 -80.342247 17.125154 -0.548790 -3.947377 -9.592781 -0.344336 -4.049778 -3.992223 -4.562894 -4.022536 2.518792 13.233972 -22.183572 -10.332700 -0.958339 -0.030212 -0.601615 0.000000 0.000000 0.000000 19.214683 10.217769 -2.092849 -30.354792 -25.603444 -14.033298 179.452303 -60.682928 -179.989700 -1.960254 -3.500960 0.081644 0.242403 0.809188 0.000000 0.000000 0.000000 0.000000 0.000000 0.000000 0.000000 4.199382 -19.502449 -1.522899 34.355587 18.262591 -10.372962 179.642005 54.601481 179.871985 -15.202370 6.061145 -0.927158 0.457714 -0.694763 -0.000000 0.000000 0.000000 0.000000 0.000000 0.000000 0.000000 
3.065179 16.550990 0.975295 -5.990453 -78.005485 16.969254 -0.698292 -3.911211 -9.817712 -0.414238 -4.001708 -4.028171 -4.693624 -3.963948 2.506450 13.238510 -22.277982 -10.357422 -0.918770 -0.025734 -0.611409 0.000000 0.000000 0.000000 19.103625 10.364412 -2.209016 -29.552329 -28.546259 -13.678447 179.343723 -61.607326 -179.991037 -1.858317 -3.521907 0.078660 0.247782 0.824236 0.000000 0.000000 0.000000 0.000000 0.000000 0.000000 0.000000 4.076462 -19.716015 -1.486442 35.017445 17.997731 -10.555371 179.684268 54.895283 179.868180 -15.559390 6.188621 -0.967408 0.461300 -0.699278 -0.000000 0.000000 0.000000 0.000000 0.000000 0.000000 0.000000 
3.053658 16.551456 0.977358 -5.632871 -75.646814 16.862643 -0.899922 -3.858215 -10.032012 -0.500285 -3.932188 -4.067817 -4.833061 -3.884683 2.469481 13.223978 -22.269252 -10.367176 -0.880899 -0.021688 -0.617545 0.000000 0.000000 0.000000 18.931765 10.556384 -2.320096 -28.626481 -31.651674 -13.362054 179.227365 -62.663009 -179.993308 -1.695605 -3.573132 0.073891 0.251870 0.840395 0.000000 0.000000 0.000000 0.000000 0.000000 0.000000 0.000000 3.934435 -19.786512 -1.436947 35.618589 17.535610 -10.890287 179.747333 55.205430 179.864012 -15.951690 6.231766 -0.997968 0.463880 -0.700432 -0.000000 0.000000 0.000000 0.000000 0.000000 0.000000 0.000000 
3.040310 16.558692 0.977660 -5.298394 -73.281121 16.782957 -1.158053 -3.787530 -10.238200 -0.602184 -3.839526 -4.114156 -4.974528 -3.783715 2.399545 13.194343 -22.121909 -10.353104 -0.848715 -0.018614 -0.617506 0.000000 0.000000 0.000000 18.702605 10.774762 -2.423194 -27.601162 -34.882618 -13.078117 179.108697 -63.837031 -179.996388 -1.488176 -3.655122 0.067534 0.255107 0.857381 -0.000000 0.000000 0.000000 0.000000 0.000000 0.000000 0.000000 3.781989 -19.666137 -1.367781 36.084628 16.830255 -11.394819 179.828373 55.483406 179.859807 -16.346639 6.115644 -1.004638 0.465318 -0.696233 -0.000000 0.000000 0.000000 0.000000 0.000000 0.000000 0.000000 
